<svg version="1.0" xmlns="http://www.w3.org/2000/svg" width="500pt" height="500pt" viewBox="0 0 1280 1024" preserveAspectRatio="xMidYMid meet" align="center">
<metadata>
Created by potrace 1.12, written by Peter Selinger 2001-2015
</metadata>
<g transform="translate(0.000000,791.000000) scale(0.100000,-0.100000)" fill="#000000" stroke="none">
<path d="M4735 7035 c-16 -8 -41 -14 -55 -15 -14 0 -36 -9 -50 -20 -14 -11
-33 -20 -43 -20 -9 0 -36 -13 -59 -30 -22 -16 -46 -30 -53 -30 -6 0 -22 -12
-36 -26 -13 -14 -40 -34 -60 -44 -19 -10 -53 -36 -75 -59 -22 -22 -51 -42 -65
-46 -27 -7 -112 -98 -123 -133 -7 -22 -16 -26 -49 -23 -9 1 -28 -6 -42 -17
-28 -23 -110 -38 -128 -24 -7 5 -61 6 -132 1 -66 -4 -173 -8 -237 -8 -99 -1
-123 -4 -150 -21 -18 -11 -41 -20 -50 -20 -10 0 -32 -9 -50 -20 -18 -11 -42
-20 -54 -20 -11 0 -29 -9 -39 -20 -17 -18 -31 -20 -167 -20 -126 0 -148 -2
-148 -15 0 -28 -50 -35 -265 -35 -132 0 -216 -4 -220 -10 -3 -5 -19 -10 -35
-10 -28 0 -70 -14 -133 -46 -18 -9 -60 -14 -110 -14 -52 0 -92 -5 -110 -15
-22 -11 -33 -12 -52 -3 -18 8 -32 8 -49 0 -13 -6 -42 -8 -65 -5 -32 4 -46 1
-62 -13 -12 -11 -35 -19 -51 -19 -26 0 -32 -5 -42 -35 -10 -31 -16 -36 -51
-40 -22 -3 -52 -13 -65 -23 -13 -9 -33 -17 -44 -17 -10 0 -29 -11 -42 -25 -13
-14 -34 -25 -49 -25 -17 0 -28 -7 -34 -23 -5 -13 -15 -28 -22 -33 -29 -22
-141 -34 -372 -37 -230 -4 -238 -4 -261 -26 -17 -16 -31 -21 -45 -16 -16 5
-31 -2 -57 -25 -20 -17 -47 -35 -61 -41 -13 -5 -32 -22 -41 -39 -9 -16 -25
-31 -35 -32 -21 -3 -47 -65 -47 -109 0 -16 -9 -32 -22 -41 -21 -14 -22 -20
-19 -149 3 -127 16 -212 40 -258 6 -11 11 -27 11 -37 0 -27 51 -123 74 -140
11 -8 80 -73 153 -144 112 -110 142 -134 206 -164 41 -19 78 -39 81 -45 4 -6
22 -11 40 -11 19 0 39 -6 45 -14 7 -8 24 -14 39 -14 24 0 193 -74 224 -99 15
-13 70 -21 198 -31 52 -4 106 -14 119 -21 18 -10 84 -12 291 -9 244 3 270 1
287 -14 11 -10 33 -18 50 -18 19 0 38 -9 53 -25 13 -14 35 -25 49 -25 14 -1
37 -7 51 -15 15 -9 53 -14 95 -15 103 0 184 -47 250 -145 18 -27 52 -68 74
-90 23 -21 41 -45 41 -51 0 -20 137 -154 156 -154 10 0 39 -22 64 -49 30 -33
73 -63 127 -91 81 -41 82 -41 200 -42 113 0 163 8 178 31 3 6 17 11 30 11 12
0 43 11 66 25 24 14 57 25 72 25 16 0 40 9 54 20 22 17 41 20 125 20 85 0 104
-3 125 -20 17 -13 33 -18 50 -14 17 5 31 0 46 -14 12 -11 40 -29 62 -40 22
-11 46 -30 53 -41 7 -12 20 -21 29 -21 26 0 97 -38 123 -65 13 -14 31 -25 40
-25 23 0 80 -56 80 -79 0 -10 7 -24 15 -31 8 -7 15 -20 15 -30 0 -10 6 -23 14
-29 27 -23 30 -70 6 -103 -12 -16 -19 -36 -16 -45 8 -19 -68 -135 -95 -145
-11 -4 -19 -17 -19 -31 0 -13 -7 -32 -15 -43 -8 -10 -15 -26 -15 -35 0 -9 -13
-28 -30 -42 -16 -15 -30 -35 -30 -45 0 -10 -11 -29 -25 -42 -14 -13 -25 -29
-25 -36 0 -19 -116 -171 -144 -190 -14 -9 -41 -38 -60 -64 -25 -35 -43 -49
-63 -52 -23 -2 -29 -8 -31 -35 -2 -17 -10 -37 -18 -43 -8 -7 -14 -20 -14 -30
0 -9 -9 -25 -20 -35 -14 -12 -18 -25 -14 -42 5 -18 -2 -34 -25 -63 -17 -21
-31 -48 -31 -59 0 -13 -31 -52 -75 -97 -41 -42 -75 -80 -75 -84 0 -5 -8 -11
-19 -15 -10 -3 -36 -41 -60 -89 -51 -103 -56 -175 -16 -241 14 -22 28 -47 31
-55 4 -8 13 -22 20 -30 7 -8 27 -44 44 -80 17 -36 36 -72 40 -80 80 -137 84
-146 88 -207 5 -66 -11 -128 -33 -137 -10 -4 -13 -14 -9 -35 6 -30 5 -32 -72
-99 -12 -10 -43 -31 -69 -46 -44 -26 -54 -28 -122 -24 -63 4 -78 2 -99 -14
-13 -11 -37 -23 -52 -27 -20 -5 -30 -17 -40 -47 -8 -26 -23 -45 -43 -57 l-31
-17 7 -66 c13 -125 64 -192 197 -257 l77 -38 399 6 399 6 31 -25 c18 -16 37
-24 46 -20 9 3 46 -8 82 -25 66 -31 67 -31 238 -31 147 0 175 3 198 18 24 16
56 18 255 21 125 1 232 6 238 11 22 18 105 60 117 60 25 0 78 64 78 93 0 15 7
39 16 53 15 23 15 26 0 43 -9 9 -16 23 -16 30 0 20 -102 121 -122 121 -9 0
-22 9 -28 19 -8 16 -17 18 -50 14 -33 -5 -47 -1 -81 22 -63 44 -79 74 -79 144
0 46 4 63 15 67 8 4 15 13 15 21 0 41 144 163 192 163 9 0 21 7 28 15 7 8 19
15 28 15 8 0 39 25 68 56 41 43 54 64 54 87 0 18 9 40 22 54 l21 23 -21 23
c-12 13 -22 36 -22 53 0 16 -7 38 -15 48 -8 11 -15 32 -15 47 0 14 -6 32 -14
38 -9 7 -16 37 -18 74 -5 64 -17 106 -49 169 -10 20 -19 44 -19 53 0 8 -11 20
-24 24 -27 11 -36 29 -36 76 0 18 -7 38 -15 45 -12 10 -15 38 -15 134 0 92 -4
127 -15 142 -8 10 -15 33 -15 50 0 17 -6 37 -14 43 -8 6 -19 31 -25 56 -6 24
-15 47 -21 50 -5 3 -10 21 -10 39 0 19 -7 40 -16 47 -14 11 -15 30 -10 124 12
239 10 287 -13 325 -11 19 -21 40 -21 45 0 6 -18 32 -40 59 -22 26 -40 56 -40
65 0 10 -7 26 -15 37 -18 24 -19 92 0 124 8 14 14 37 15 51 0 14 7 34 15 45 8
10 15 37 15 59 0 22 7 49 15 59 10 13 15 43 15 83 0 52 3 64 20 73 11 6 20 20
20 31 0 33 37 94 73 122 19 14 37 38 41 52 3 13 27 45 51 70 25 24 45 51 45
58 0 8 54 67 120 133 66 65 120 126 120 135 0 8 14 28 30 44 17 16 30 34 30
41 0 7 11 25 23 41 26 31 97 174 97 195 0 7 8 25 17 38 14 20 17 42 15 105 -2
58 1 88 13 109 8 15 15 45 15 66 0 21 7 43 15 50 13 10 15 52 15 259 0 229 -2
248 -20 276 -12 18 -20 47 -20 73 0 39 6 49 58 104 31 33 74 69 94 79 20 10
43 27 50 37 7 11 31 28 53 40 22 11 48 30 58 42 12 14 24 19 37 15 13 -4 20 0
25 14 3 11 19 28 35 38 16 9 44 37 62 61 18 24 41 48 51 53 9 5 17 17 17 27 0
9 10 33 22 52 12 19 22 43 23 52 1 10 9 26 18 36 19 21 22 48 7 57 -6 4 -17
22 -25 41 -8 19 -21 34 -29 34 -9 0 -16 5 -16 11 0 6 -17 29 -39 50 l-39 39
-89 0 c-78 0 -91 -3 -107 -21 -16 -19 -25 -21 -77 -16 -48 4 -62 2 -72 -11
-13 -19 -72 -42 -104 -42 -11 0 -26 -7 -33 -15 -7 -8 -23 -15 -37 -15 -13 0
-26 -7 -30 -15 -9 -24 -99 -66 -126 -60 -16 4 -29 0 -41 -14 -11 -12 -24 -21
-31 -21 -7 0 -20 -9 -30 -20 -10 -11 -30 -26 -44 -33 -14 -7 -35 -18 -46 -23
-74 -38 -89 -44 -106 -44 -12 0 -19 -7 -19 -18 0 -25 -31 -52 -59 -52 -12 0
-24 -8 -28 -17 -19 -53 -79 -76 -131 -49 -16 8 -32 22 -36 31 -3 9 -12 15 -19
13 -13 -3 -38 15 -127 91 l-40 34 -106 -5 c-92 -4 -108 -2 -129 14 -13 10 -30
18 -38 18 -8 0 -20 7 -27 15 -9 11 -22 14 -42 10 -66 -15 -67 52 -2 80 25 10
31 18 27 33 -3 14 4 27 26 43 17 12 31 31 31 42 0 27 12 46 72 108 59 62 94
110 90 123 -2 5 5 17 14 27 16 18 16 20 -3 42 -10 12 -27 34 -37 50 -9 15 -35
41 -58 57 -46 34 -109 39 -163 15z m33 -198 c14 -16 -11 -57 -34 -57 -24 0
-178 -163 -189 -201 -7 -22 -24 -43 -52 -62 -35 -23 -43 -34 -43 -58 0 -21 -6
-32 -21 -37 -22 -9 -51 -82 -63 -159 -6 -42 -6 -42 38 -63 51 -23 86 -26 104
-8 19 19 183 23 218 5 19 -10 58 -15 115 -15 59 0 96 -5 116 -16 39 -20 112
-102 120 -135 3 -14 21 -41 39 -58 29 -29 39 -33 87 -33 58 0 138 35 156 69
11 20 86 61 111 61 10 0 28 13 40 30 12 17 36 34 58 40 20 5 52 19 70 30 18
11 45 20 61 20 16 0 34 6 40 14 7 8 26 18 43 21 36 8 92 39 133 74 17 14 55
38 85 53 111 54 149 74 223 116 66 37 82 42 139 42 70 0 108 -18 108 -51 0
-24 -77 -119 -96 -119 -7 0 -26 -11 -42 -25 -17 -14 -34 -25 -39 -25 -16 0
-85 -63 -93 -86 -7 -16 -23 -27 -57 -37 -32 -9 -51 -21 -58 -36 -7 -16 -16
-21 -32 -18 -17 3 -27 -4 -43 -29 -13 -23 -27 -34 -43 -34 -16 0 -33 -13 -54
-44 -17 -24 -56 -60 -87 -81 -41 -27 -56 -43 -56 -60 0 -12 -7 -28 -15 -35
-39 -32 -12 -82 88 -163 75 -61 88 -96 89 -244 0 -101 -3 -128 -15 -134 -9 -5
-13 -18 -9 -34 2 -14 -3 -36 -13 -52 -15 -23 -18 -46 -16 -133 2 -86 -1 -109
-13 -119 -9 -8 -16 -29 -16 -48 0 -24 -8 -42 -27 -61 -15 -15 -37 -47 -49 -72
-12 -25 -31 -54 -43 -64 -11 -11 -21 -26 -21 -35 0 -29 -38 -81 -55 -75 -8 4
-17 0 -21 -9 -3 -8 -23 -34 -45 -57 -21 -22 -39 -48 -39 -57 0 -9 -20 -40 -45
-69 -25 -28 -45 -56 -45 -61 0 -4 -40 -47 -88 -94 -64 -62 -91 -97 -100 -126
-6 -22 -21 -48 -32 -58 -11 -10 -20 -26 -20 -35 0 -9 -8 -24 -18 -33 -13 -12
-18 -34 -20 -93 -1 -49 -8 -86 -17 -101 -8 -12 -15 -33 -15 -47 0 -13 -7 -26
-15 -30 -8 -3 -15 -15 -15 -27 0 -23 -25 -72 -54 -106 -16 -18 -18 -32 -12
-80 3 -32 2 -65 -3 -73 -12 -18 -187 -22 -202 -4 -5 6 -11 35 -13 63 -4 39
-11 58 -29 75 -14 13 -28 34 -32 47 -9 29 -164 178 -186 179 -8 0 -26 11 -39
25 -13 14 -33 25 -44 25 -26 1 -49 18 -65 48 -6 12 -18 22 -25 22 -26 0 -95
36 -113 59 -22 27 -83 51 -130 51 -48 0 -85 17 -81 37 2 9 26 29 53 43 58 30
67 56 39 107 -14 27 -23 33 -49 33 -18 0 -44 -9 -59 -21 -15 -12 -34 -18 -44
-15 -11 4 -32 -4 -52 -19 -19 -14 -41 -25 -51 -25 -9 0 -23 -7 -30 -17 -16
-19 -106 -63 -130 -63 -9 0 -22 -7 -29 -15 -7 -8 -20 -15 -29 -15 -10 0 -32
-16 -51 -35 -19 -19 -39 -35 -44 -35 -6 0 -23 -6 -38 -14 -15 -8 -35 -12 -45
-10 -11 3 -27 -3 -37 -15 -24 -26 -68 -27 -91 -1 -12 14 -25 17 -46 13 -22 -4
-43 4 -94 36 -37 22 -70 41 -75 41 -13 0 -144 122 -152 142 -4 10 -12 18 -17
18 -5 0 -21 21 -36 48 -15 26 -41 57 -56 70 -32 26 -38 52 -11 52 9 0 48 2 86
5 58 3 76 0 108 -17 l38 -22 34 33 c30 29 34 38 29 70 -8 53 -19 61 -83 61
-36 0 -62 5 -69 13 -8 11 -54 14 -201 14 -157 1 -194 4 -214 17 -18 11 -37 14
-68 10 -33 -5 -47 -2 -57 10 -10 11 -30 16 -71 16 -39 0 -62 5 -70 15 -8 10
-31 15 -70 15 -41 0 -61 5 -71 16 -10 12 -24 15 -57 10 -35 -5 -49 -2 -68 13
-23 18 -39 19 -187 15 -89 -2 -175 -7 -190 -10 -22 -4 -34 -1 -49 16 -14 15
-27 20 -43 16 -15 -4 -32 2 -50 15 -22 18 -35 21 -74 16 -37 -4 -55 -1 -80 14
-17 10 -45 19 -61 19 -16 0 -32 5 -35 10 -3 6 -20 10 -36 10 -16 0 -42 9 -58
20 -23 18 -32 19 -56 10 -24 -9 -33 -8 -56 10 -16 11 -44 20 -62 20 -26 0 -39
6 -51 25 -9 14 -25 25 -34 25 -10 0 -31 13 -47 30 -16 16 -35 30 -42 30 -7 0
-18 12 -23 26 -7 18 -15 24 -26 20 -10 -4 -29 8 -54 33 -22 22 -55 52 -75 67
-20 15 -45 48 -57 73 -11 25 -29 64 -39 85 -11 22 -19 58 -19 81 0 23 -7 55
-15 72 -22 44 -18 210 7 242 10 13 18 29 18 36 0 7 24 35 54 64 38 35 63 51
81 51 15 0 38 9 52 20 16 12 34 18 45 14 10 -3 29 3 44 15 19 15 37 19 79 17
30 -1 61 -9 71 -17 22 -18 194 -13 232 7 34 18 106 18 120 1 9 -10 7 -19 -4
-36 -14 -19 -16 -52 -16 -187 1 -150 2 -166 21 -190 24 -30 26 -40 10 -49 -7
-5 -4 -14 7 -26 18 -20 34 -46 56 -89 23 -46 73 -100 91 -100 10 0 38 -20 63
-45 24 -25 51 -45 60 -45 10 0 32 -11 50 -25 18 -14 40 -25 48 -25 8 0 25 -13
37 -30 12 -16 39 -36 59 -44 21 -8 40 -22 43 -30 4 -9 14 -16 23 -16 8 0 35
-16 58 -35 24 -19 53 -35 65 -35 12 0 32 -6 44 -12 12 -7 54 -16 92 -19 89 -9
153 -23 168 -38 6 -6 25 -11 42 -11 17 0 36 -5 43 -12 18 -18 462 -12 483 8 8
7 29 14 45 14 16 0 38 7 48 15 11 8 37 15 59 15 55 0 134 36 189 87 26 24 52
43 58 43 7 0 23 9 37 20 14 11 32 20 39 20 7 0 29 -25 49 -55 21 -30 51 -65
68 -77 18 -12 34 -26 35 -30 2 -5 23 -18 45 -29 23 -12 62 -40 87 -64 25 -23
76 -59 115 -79 61 -32 78 -36 140 -36 57 0 82 -5 121 -25 27 -14 58 -25 69
-25 12 0 50 -15 85 -33 60 -30 71 -33 149 -30 59 2 93 -2 114 -12 17 -8 40
-15 51 -15 12 0 32 -7 45 -16 34 -25 224 -23 252 1 10 10 35 19 55 19 20 1 41
9 48 18 20 28 184 97 248 105 21 3 42 11 49 19 6 8 19 14 29 14 10 0 23 7 30
15 7 8 20 15 29 15 22 0 146 129 154 161 4 14 18 42 32 63 14 20 25 49 25 64
1 15 7 38 15 52 8 14 14 35 15 46 0 12 7 27 15 34 12 10 15 38 15 135 0 97 -3
125 -15 135 -8 7 -15 27 -15 46 0 27 -8 39 -40 65 -22 18 -40 37 -40 43 0 6
-16 25 -35 41 -19 17 -61 55 -92 85 -76 73 -161 140 -179 140 -7 0 -18 9 -24
20 -7 14 -17 19 -29 15 -10 -3 -24 1 -31 10 -8 10 -30 15 -60 15 -31 0 -52 5
-60 15 -11 14 -45 16 -229 14 -192 -1 -221 -3 -263 -21 -28 -12 -57 -18 -71
-14 -14 3 -32 0 -43 -9 -10 -8 -30 -15 -43 -15 -14 0 -35 -10 -47 -21 -24 -23
-124 -38 -124 -19 0 20 -43 9 -113 -27 -40 -20 -97 -49 -127 -64 -30 -16 -63
-29 -72 -29 -10 0 -22 -9 -28 -21 -6 -11 -19 -19 -28 -17 -9 1 -27 -5 -40 -14
-13 -8 -31 -14 -41 -11 -18 5 -101 -67 -101 -87 0 -6 -8 -10 -19 -10 -13 0
-28 19 -50 61 -17 33 -31 67 -31 74 0 7 -11 20 -25 29 -13 9 -28 30 -33 48 -5
22 -19 37 -44 50 -26 14 -40 30 -49 56 -7 20 -32 56 -56 80 -23 24 -43 49 -43
57 0 7 -15 24 -34 39 -19 14 -44 42 -56 61 -14 23 -32 38 -51 42 -16 3 -34 12
-40 19 -6 8 -22 14 -34 14 -12 0 -29 10 -37 22 -14 21 -18 22 -41 9 -23 -12
-29 -12 -51 2 -13 9 -43 19 -66 23 -90 15 -58 49 56 58 57 5 96 14 117 27 23
14 50 19 100 19 37 0 84 7 104 15 19 8 58 15 86 15 34 0 57 6 70 17 12 12 35
18 65 18 35 0 53 6 70 23 12 12 34 22 48 22 14 0 34 5 45 11 11 6 68 14 127
18 59 4 114 9 122 12 21 6 25 -35 6 -73 -9 -17 -16 -33 -16 -34 0 -11 64 -34
93 -34 38 0 47 7 151 121 59 63 95 91 166 126 20 10 58 40 85 66 28 27 67 60
88 73 20 13 37 28 37 33 0 4 18 16 40 26 22 10 46 25 52 33 7 7 40 27 74 43
34 16 67 36 74 44 15 19 44 19 58 2z m-2496 -701 c12 -9 36 -16 53 -16 16 0
45 -9 64 -21 23 -14 42 -18 63 -14 17 4 35 2 44 -6 8 -7 34 -16 57 -20 54 -9
128 -37 147 -54 11 -10 28 -12 53 -8 26 4 43 1 55 -10 24 -22 90 -47 121 -47
16 0 37 -10 51 -24 12 -14 35 -28 51 -31 16 -4 34 -16 40 -27 6 -11 25 -26 42
-33 39 -17 127 -98 127 -117 0 -7 14 -26 31 -41 25 -21 30 -33 26 -54 -3 -18
2 -36 14 -52 23 -29 25 -93 4 -111 -11 -9 -15 -33 -15 -90 0 -68 -4 -86 -34
-147 -69 -138 -178 -223 -289 -223 -38 0 -71 -7 -97 -20 -35 -18 -59 -20 -235
-20 -171 0 -203 3 -257 21 -34 11 -70 27 -81 34 -13 9 -35 12 -66 8 -36 -4
-51 -1 -63 11 -9 9 -30 16 -46 16 -36 0 -117 33 -129 52 -4 7 -26 22 -48 31
-23 10 -56 37 -75 60 -19 24 -89 93 -155 154 -98 90 -127 124 -157 182 -36 68
-38 75 -38 166 0 91 2 99 38 168 27 54 56 89 109 137 120 108 137 120 177 120
20 0 36 5 36 10 0 20 39 25 199 28 134 3 164 1 183 -12z m2623 -496 c31 -16
67 -30 79 -30 12 0 31 -7 42 -15 10 -8 30 -15 44 -15 14 0 41 -13 60 -30 19
-16 43 -29 52 -30 30 0 134 -111 171 -181 32 -58 36 -75 39 -156 2 -78 0 -94
-16 -112 -10 -11 -16 -27 -13 -35 10 -24 -35 -106 -89 -165 -59 -64 -127 -101
-186 -101 -24 0 -52 -7 -62 -15 -11 -8 -29 -15 -40 -15 -12 0 -32 -9 -46 -20
-14 -11 -30 -20 -36 -20 -6 0 -17 -7 -24 -15 -7 -8 -27 -15 -44 -15 -17 -1
-42 -7 -56 -15 -34 -19 -150 -20 -176 0 -10 8 -40 15 -65 15 -30 0 -51 6 -60
16 -11 13 -32 15 -127 11 -93 -3 -121 0 -150 14 -72 33 -123 49 -158 49 -19 0
-46 7 -59 16 -15 10 -32 13 -46 9 -16 -5 -28 0 -50 24 -15 17 -38 31 -50 31
-28 0 -162 141 -195 207 l-25 48 27 58 c30 67 132 175 194 207 22 11 40 25 40
31 0 5 15 16 33 24 19 8 40 22 48 31 16 20 111 64 137 64 10 0 27 7 38 15 11
8 42 14 75 15 33 0 63 6 75 15 10 8 29 15 41 15 12 0 57 19 100 43 84 45 119
51 334 55 79 2 92 -1 144 -28z m215 -2440 c12 -6 23 -30 30 -65 6 -30 16 -57
21 -60 5 -4 9 -26 9 -50 0 -24 6 -59 14 -77 32 -78 38 -110 42 -238 4 -113 8
-139 25 -162 10 -15 19 -41 19 -57 0 -16 5 -33 10 -36 6 -3 10 -21 10 -38 0
-18 7 -43 16 -55 12 -18 16 -45 15 -109 -1 -71 2 -91 20 -119 11 -19 19 -41
16 -48 -3 -8 1 -22 8 -33 8 -10 15 -27 15 -39 0 -11 7 -29 15 -40 25 -33 19
-89 -14 -126 l-29 -33 -214 -6 c-167 -5 -220 -3 -247 7 -18 8 -54 14 -80 14
-27 0 -56 7 -70 16 -19 14 -53 17 -180 18 -93 1 -164 6 -176 13 -11 6 -58 23
-105 38 -46 14 -96 35 -110 44 -14 10 -35 21 -46 25 -13 4 -35 32 -53 66 -35
65 -35 62 6 170 50 132 66 166 88 190 12 14 28 41 34 61 6 20 27 54 45 75 18
21 41 54 51 73 9 19 67 85 129 146 126 127 148 154 178 222 11 26 44 72 72
102 28 30 61 64 73 77 14 15 33 24 52 24 16 0 33 5 36 10 8 13 250 13 275 0z
m-1176 -1226 c10 -4 16 -18 16 -39 0 -20 8 -39 21 -51 22 -20 42 -54 53 -91 5
-17 -1 -29 -29 -54 -24 -22 -37 -44 -41 -71 -4 -21 -10 -38 -14 -38 -22 0
-140 189 -140 224 0 23 48 104 68 116 20 11 44 13 66 4z m1639 -369 c-3 -9 1
-23 10 -33 23 -26 29 -59 17 -82 -15 -27 -71 -79 -87 -80 -6 0 -25 -11 -41
-25 -17 -14 -35 -25 -41 -25 -16 0 -13 36 4 50 8 7 15 24 15 39 0 14 6 37 14
51 7 14 23 45 36 70 13 25 32 55 44 68 20 23 20 23 28 2 4 -11 5 -27 1 -35z"></path>
<path d="M2075 5709 c-43 -38 -46 -72 -8 -111 54 -57 133 -26 133 52 0 34 -5
43 -37 65 -21 14 -41 25 -45 25 -4 0 -23 -14 -43 -31z"></path>
<path d="M4270 5230 c-14 -14 -20 -33 -20 -63 0 -36 5 -47 30 -65 53 -39 103
-24 120 36 14 53 13 60 -15 87 -31 32 -86 34 -115 5z"></path>
</g>
</svg>
